<svg width="16" height="17" viewBox="0 0 16 17" fill="none" xmlns="http://www.w3.org/2000/svg">
<path d="M3.5998 5.38773C2.88784 5.38773 2.31187 4.81177 2.31187 4.0998C2.31187 3.75822 2.44757 3.43063 2.6891 3.1891C2.93063 2.94757 3.25822 2.81187 3.5998 2.81187C4.31177 2.81187 4.88773 3.38784 4.88773 4.0998C4.88773 4.44138 4.75204 4.76897 4.51051 5.01051C4.26897 5.25204 3.94138 5.38773 3.5998 5.38773ZM3.5998 0.5C1.59991 0.5 0 2.09991 0 4.0998C0 6.79566 3.5998 10.7874 3.5998 10.7874C3.5998 10.7874 7.19961 6.79566 7.19961 4.0998C7.19961 2.09991 5.5997 0.5 3.5998 0.5ZM12.3993 5.38773C12.0577 5.38773 11.7302 5.25204 11.4886 5.01051C11.2471 4.76897 11.1114 4.44138 11.1114 4.0998C11.1114 3.38784 11.6874 2.81187 12.3993 2.81187C13.1113 2.81187 13.6873 3.38784 13.6873 4.0998C13.6873 4.44138 13.5516 4.76897 13.31 5.01051C13.0685 5.25204 12.7409 5.38773 12.3993 5.38773ZM12.3993 0.5C10.3994 0.5 8.79952 2.09991 8.79952 4.0998C8.79952 6.79566 12.3993 10.7874 12.3993 10.7874C12.3993 10.7874 15.9991 6.79566 15.9991 4.0998C15.9991 2.09991 14.3992 0.5 12.3993 0.5ZM12.3993 11.6994C11.3834 11.6994 10.4794 12.3394 10.1434 13.2993H5.85568C5.41571 12.0514 4.03978 11.3954 2.79985 11.8354C1.54392 12.2754 0.887952 13.6513 1.32793 14.8992C1.7759 16.1471 3.14383 16.8031 4.39976 16.3631C5.07972 16.1232 5.5997 15.5792 5.85568 14.8992H10.1514C10.5914 16.1471 11.9673 16.8031 13.1993 16.3631C14.4632 15.9232 15.1192 14.5472 14.6792 13.2993C14.3352 12.3394 13.4233 11.6994 12.3993 11.6994ZM12.3993 15.2992C12.0811 15.2992 11.7759 15.1728 11.5508 14.9477C11.3258 14.7227 11.1994 14.4175 11.1994 14.0993C11.1994 13.781 11.3258 13.4758 11.5508 13.2508C11.7759 13.0257 12.0811 12.8993 12.3993 12.8993C12.7176 12.8993 13.0228 13.0257 13.2478 13.2508C13.4728 13.4758 13.5993 13.781 13.5993 14.0993C13.5993 14.4175 13.4728 14.7227 13.2478 14.9477C13.0228 15.1728 12.7176 15.2992 12.3993 15.2992Z" fill="#121231"/>
</svg>
