<svg width="130" height="45" viewBox="0 0 130 45" fill="none" xmlns="http://www.w3.org/2000/svg">
<g clip-path="url(#clip0_3130_310)">
<path d="M40.4824 27.6328V26.6233C40.4824 26.3557 40.5189 26.1368 40.5796 25.9787C40.6404 25.8206 40.7497 25.6503 40.8955 25.4679L46.6787 18.6936C46.7394 18.6084 46.7637 18.5355 46.7394 18.4625C46.7151 18.3895 46.6544 18.353 46.5572 18.353H41.1142C40.7254 18.353 40.5432 18.1584 40.5432 17.7814V16.5409C40.5432 16.1517 40.7376 15.9692 41.1142 15.9692H49.7525C50.1413 15.9692 50.3235 16.1638 50.3235 16.5409V17.5503C50.3235 17.8179 50.2871 18.0368 50.2263 18.1949C50.1656 18.353 50.0563 18.5233 49.9105 18.6936L44.1273 25.4679C44.0665 25.553 44.0422 25.626 44.0665 25.699C44.0908 25.7719 44.1516 25.8084 44.2488 25.8084H49.789C50.1777 25.8084 50.36 26.003 50.36 26.38V27.6328C50.36 28.0219 50.1656 28.2044 49.789 28.2044H41.0535C40.6647 28.2044 40.4824 28.0219 40.4824 27.6328Z" fill="#161A31"/>
<path d="M54.4665 14.4972H52.7899C52.4254 14.4972 52.2432 14.3026 52.2432 13.9256V12.1986C52.2432 11.8094 52.4254 11.627 52.7899 11.627H54.4665C54.8553 11.627 55.0376 11.8215 55.0376 12.1986V13.9256C55.0376 14.3026 54.8553 14.4972 54.4665 14.4972ZM54.4665 28.204H52.7899C52.4254 28.204 52.2432 28.0094 52.2432 27.6324V16.5405C52.2432 16.1513 52.4254 15.9688 52.7899 15.9688H54.4665C54.8553 15.9688 55.0376 16.1634 55.0376 16.5405V27.6324C55.0376 28.0215 54.8553 28.204 54.4665 28.204Z" fill="#161A31"/>
<path d="M58.3299 15.957H59.9823C60.3711 15.957 60.5533 16.1516 60.5533 16.5287V17.6354C60.5533 17.7814 60.614 17.7935 60.7234 17.6841L61.5374 16.8692C61.8533 16.553 62.1692 16.3219 62.4729 16.176C62.7767 16.03 63.1654 15.957 63.6271 15.957H65.2795C65.8748 15.957 66.3486 16.0422 66.701 16.2003C67.0533 16.3584 67.4178 16.6381 67.8066 17.0151L68.329 17.5381C68.6935 17.903 68.9486 18.2678 69.0944 18.6327C69.2402 18.9976 69.3131 19.4476 69.3131 19.9949V24.1787C69.3131 24.7259 69.2402 25.176 69.0944 25.5408C68.9486 25.9057 68.6935 26.2705 68.329 26.6354L67.8066 27.1584C67.4178 27.5476 67.0533 27.8151 66.701 27.9732C66.3486 28.1314 65.8748 28.2165 65.2795 28.2165H63.6271C63.1654 28.2165 62.7767 28.1435 62.4729 27.9976C62.1692 27.8516 61.8533 27.6205 61.5374 27.3043L60.7477 26.5138C60.6383 26.4043 60.5776 26.4165 60.5776 26.5624V31.9624C60.5776 32.3516 60.3832 32.5341 60.0066 32.5341H58.3299C57.9654 32.5341 57.7832 32.3395 57.7832 31.9624V16.5408C57.7832 16.1516 57.9654 15.957 58.3299 15.957ZM60.6505 23.6678C60.6991 23.7895 60.8084 23.9354 60.9664 24.0692L62.2907 25.3949C62.5458 25.6624 62.8739 25.8084 63.2748 25.8084H64.8299C65.2309 25.8084 65.5711 25.6746 65.8383 25.3949L66.0813 25.1516C66.2393 24.9814 66.3486 24.8111 66.4215 24.6773C66.4823 24.5314 66.5187 24.3246 66.5187 24.057V20.1165C66.5187 19.8489 66.4823 19.6422 66.4215 19.4962C66.3608 19.3503 66.2393 19.1922 66.0813 19.0097L65.8383 18.7665C65.5711 18.4989 65.2309 18.353 64.8299 18.353H63.2748C62.8739 18.353 62.5458 18.4868 62.2907 18.7665L60.9664 20.0922C60.8084 20.2381 60.6991 20.3719 60.6505 20.5057C60.6019 20.6395 60.5776 20.8219 60.5776 21.053V23.1205C60.5897 23.3638 60.614 23.5462 60.6505 23.6678Z" fill="#161A31"/>
<path d="M81.6691 28.2044H80.0168C79.628 28.2044 79.4458 28.0098 79.4458 27.6328V20.1165C79.4458 19.849 79.4093 19.6422 79.3486 19.4963C79.2878 19.3503 79.1785 19.1922 79.0084 19.0098L78.7654 18.7665C78.4981 18.499 78.1579 18.353 77.757 18.353H77.0888C76.6878 18.353 76.3598 18.4868 76.1046 18.7665L74.7803 20.0922C74.6224 20.2382 74.5131 20.3719 74.4645 20.5057C74.4159 20.6395 74.3916 20.8219 74.3916 21.053V27.6328C74.3916 28.0219 74.1972 28.2044 73.8205 28.2044H72.1439C71.7794 28.2044 71.5972 28.0098 71.5972 27.6328V16.5409C71.5972 16.1517 71.7794 15.9692 72.1439 15.9692H73.7962C74.185 15.9692 74.3673 16.1638 74.3673 16.5409V17.6476C74.3673 17.7936 74.428 17.8057 74.5374 17.6963L75.3514 16.8814C75.6673 16.5652 75.9832 16.3341 76.2869 16.1882C76.5906 16.0422 76.9794 15.9692 77.4411 15.9692H78.2065C78.7775 15.9692 79.2514 16.0544 79.6037 16.2125C79.9682 16.3706 80.3327 16.6503 80.7215 17.0273L81.7542 18.0611C81.8514 18.1463 81.9364 18.1463 82.0215 18.0611L83.2 16.8814C83.5159 16.5652 83.8317 16.3341 84.1355 16.1882C84.4392 16.0422 84.828 15.9692 85.2897 15.9692H86.0551C86.6261 15.9692 87.1 16.0544 87.4523 16.2125C87.8168 16.3706 88.1813 16.6503 88.5701 17.0273L89.0925 17.5503C89.457 17.9152 89.7121 18.28 89.8579 18.6449C90.0037 19.0098 90.0766 19.4598 90.0766 20.0071V27.6449C90.0766 28.0341 89.8822 28.2165 89.5056 28.2165H87.8654C87.4766 28.2165 87.2944 28.0219 87.2944 27.6449V20.1287C87.2944 19.8611 87.2579 19.6544 87.1972 19.5084C87.1364 19.3625 87.0271 19.2044 86.857 19.0219L86.614 18.7787C86.3467 18.5111 86.0065 18.3652 85.6056 18.3652H84.9374C84.5364 18.3652 84.2084 18.499 83.9532 18.7787L82.6289 20.1044C82.471 20.2503 82.3617 20.3841 82.3131 20.5179C82.2645 20.6517 82.2402 20.8341 82.2402 21.0652V27.6449C82.2523 28.0219 82.0579 28.2044 81.6691 28.2044Z" fill="#161A31"/>
<path d="M100.817 16.2002C101.169 16.3583 101.534 16.638 101.923 17.015L102.445 17.538C102.81 17.9029 103.065 18.2678 103.211 18.6326C103.356 18.9975 103.429 19.4475 103.429 19.9948V22.634C103.429 23.0232 103.235 23.2056 102.858 23.2056H95.2284C95.0704 23.2056 94.9854 23.2907 94.9854 23.4488V24.0448C94.9854 24.3123 95.0218 24.5313 95.0826 24.6772C95.1433 24.8232 95.2527 24.9813 95.4228 25.1394L95.6657 25.3826C95.933 25.6502 96.2732 25.7961 96.6742 25.7961H102.482C102.87 25.7961 103.053 25.9907 103.053 26.3678V27.6205C103.053 28.0096 102.858 28.1921 102.482 28.1921H96.2246C95.6293 28.1921 95.1555 28.1069 94.8153 27.9488C94.4629 27.7907 94.0984 27.511 93.7097 27.134L93.1872 26.611C92.8227 26.2461 92.5676 25.8813 92.4218 25.5164C92.276 25.1515 92.2031 24.7015 92.2031 24.1542V19.9705C92.2031 19.4232 92.276 18.9732 92.4218 18.6083C92.5676 18.2434 92.8227 17.8786 93.1872 17.5137L93.7097 16.9907C94.0984 16.6015 94.4629 16.334 94.8153 16.1759C95.1676 16.0178 95.6414 15.9326 96.2246 15.9326H99.4078C100.003 15.9569 100.465 16.0421 100.817 16.2002ZM95.6657 18.7664L95.4228 19.0096C95.2648 19.1799 95.1555 19.3502 95.0826 19.4961C95.0218 19.6421 94.9854 19.8488 94.9854 20.1164V20.5786C94.9854 20.7367 95.0704 20.8218 95.2284 20.8218H100.453C100.611 20.8218 100.696 20.7367 100.696 20.5786V20.1164C100.696 19.8488 100.659 19.6421 100.598 19.4961C100.538 19.3502 100.428 19.1921 100.258 19.0096L100.015 18.7664C99.748 18.4988 99.4078 18.3529 99.0069 18.3529H96.662C96.2732 18.365 95.933 18.4988 95.6657 18.7664Z" fill="#161A31"/>
<path d="M113.756 19.4963C113.696 19.3503 113.574 19.1922 113.416 19.0098L113.173 18.7665C112.906 18.499 112.566 18.353 112.165 18.353H111.011C110.61 18.353 110.282 18.4868 110.027 18.7665L108.702 20.0922C108.544 20.2382 108.435 20.3719 108.386 20.5057C108.338 20.6395 108.313 20.8219 108.313 21.053V27.6328C108.313 28.0219 108.119 28.2044 107.742 28.2044H106.066C105.701 28.2044 105.519 28.0098 105.519 27.6328V16.5409C105.519 16.1517 105.701 15.9692 106.066 15.9692H107.718C108.107 15.9692 108.289 16.1638 108.289 16.5409V17.6476C108.289 17.7936 108.35 17.8057 108.459 17.6963L109.273 16.8814C109.589 16.5652 109.905 16.3341 110.209 16.1882C110.513 16.0422 110.901 15.9692 111.363 15.9692H112.614C113.185 15.9692 113.659 16.0544 114.024 16.2125C114.388 16.3706 114.753 16.6503 115.141 17.0273L115.664 17.5503C116.028 17.9152 116.284 18.28 116.429 18.6449C116.575 19.0098 116.648 19.4598 116.648 20.0071V27.6449C116.648 28.0341 116.454 28.2165 116.077 28.2165H114.425C114.036 28.2165 113.854 28.0219 113.854 27.6449V20.1287C113.854 19.849 113.817 19.6422 113.756 19.4963Z" fill="#161A31"/>
<path d="M129.733 28.2041H128.08C127.692 28.2041 127.509 28.0096 127.509 27.6325V26.5258C127.509 26.3798 127.449 26.3677 127.339 26.4771L126.525 27.292C126.209 27.6082 125.893 27.8393 125.59 27.9852C125.286 28.1312 124.897 28.2041 124.435 28.2041H122.783C122.188 28.2041 121.714 28.119 121.362 27.9609C121.009 27.8028 120.645 27.5231 120.256 27.146L119.734 26.6231C119.369 26.2582 119.114 25.8933 118.968 25.5285C118.822 25.1636 118.75 24.7136 118.75 24.1663V19.9825C118.75 19.4352 118.822 18.9852 118.968 18.6204C119.114 18.2555 119.369 17.8906 119.734 17.5258L120.256 17.0028C120.645 16.6136 121.009 16.346 121.362 16.1879C121.714 16.0298 122.188 15.9447 122.783 15.9447H124.435C124.897 15.9447 125.286 16.0177 125.59 16.1636C125.893 16.3096 126.209 16.5406 126.525 16.8569L127.315 17.6474C127.424 17.7569 127.485 17.7447 127.485 17.5987V11.9798C127.485 11.5906 127.679 11.4082 128.056 11.4082H129.733C130.097 11.4082 130.279 11.6028 130.279 11.9798V27.6325C130.292 28.0217 130.097 28.2041 129.733 28.2041ZM127.412 20.5055C127.364 20.3717 127.266 20.2379 127.096 20.092L125.772 18.7663C125.517 18.4987 125.189 18.3528 124.788 18.3528H123.233C122.832 18.3528 122.492 18.4866 122.224 18.7663L121.981 19.0096C121.823 19.1798 121.714 19.3501 121.641 19.496C121.58 19.642 121.544 19.8487 121.544 20.1163V24.0569C121.544 24.3244 121.58 24.5433 121.641 24.6771C121.702 24.8109 121.811 24.9812 121.981 25.1514L122.224 25.3947C122.492 25.6623 122.832 25.8082 123.233 25.8082H124.788C125.189 25.8082 125.517 25.6744 125.772 25.3947L127.096 24.069C127.254 23.9231 127.364 23.7893 127.412 23.6677C127.461 23.5339 127.485 23.3514 127.485 23.1204V21.0528C127.485 20.8096 127.461 20.6271 127.412 20.5055Z" fill="#161A31"/>
<path d="M41.3691 42.0445V35.2458C41.3691 35.112 41.4299 35.0391 41.5635 35.0391H45.9617C46.0953 35.0391 46.1682 35.112 46.1682 35.2458V35.635C46.1682 35.7688 46.0953 35.8296 45.9617 35.8296H42.3533C42.2804 35.8296 42.2561 35.8661 42.2561 35.9269V38.031C42.2561 38.1039 42.2925 38.1283 42.3533 38.1283H45.4757C45.6093 38.1283 45.6822 38.1891 45.6822 38.3228V38.6877C45.6822 38.8215 45.6093 38.8945 45.4757 38.8945H42.3533C42.2804 38.8945 42.2561 38.931 42.2561 38.9918V41.3512C42.2561 41.4242 42.2925 41.4485 42.3533 41.4485H45.9617C46.0953 41.4485 46.1682 41.5093 46.1682 41.6431V42.0323C46.1682 42.1661 46.0953 42.2391 45.9617 42.2391H41.5635C41.4299 42.2391 41.3691 42.1783 41.3691 42.0445Z" fill="#161A31"/>
<path d="M51.3561 42.2026C51.3075 42.1661 51.2468 42.1053 51.186 42.0202L49.8739 40.1959C49.8374 40.1229 49.7888 40.1229 49.7402 40.1959L48.4281 42.0202C48.3673 42.1053 48.3187 42.1661 48.258 42.2026C48.2094 42.2391 48.1243 42.2513 48.0272 42.2513H47.6505C47.5533 42.2513 47.4926 42.2269 47.4683 42.1661C47.444 42.1053 47.4561 42.0445 47.5169 41.9594L49.1571 39.685C49.2057 39.6121 49.2057 39.5391 49.1571 39.454L47.5776 37.3256C47.529 37.2526 47.5169 37.1918 47.5412 37.131C47.5655 37.0702 47.6141 37.0337 47.7113 37.0337H48.1001C48.1972 37.0337 48.2701 37.0459 48.3187 37.0823C48.3673 37.1188 48.4281 37.1796 48.4888 37.2526L49.7524 38.9675C49.801 39.0404 49.8496 39.0404 49.886 38.9675L51.1496 37.2526C51.2103 37.1675 51.2711 37.1067 51.3197 37.0823C51.3683 37.058 51.4412 37.0337 51.5384 37.0337H51.9272C52.0243 37.0337 52.0851 37.0702 52.0972 37.131C52.1215 37.1918 52.1094 37.2648 52.0608 37.3256L50.4814 39.454C50.4328 39.5391 50.4328 39.6121 50.4814 39.685L52.1215 41.9594C52.1701 42.0323 52.1823 42.1053 52.158 42.1661C52.1337 42.2269 52.0729 42.2513 51.9758 42.2513H51.5748C51.4776 42.2391 51.4047 42.2269 51.3561 42.2026Z" fill="#161A31"/>
<path d="M53.6885 37.0337H54.1381C54.2839 37.0337 54.3568 37.1067 54.3568 37.2404V37.8486C54.3568 37.9094 54.3811 37.9215 54.4297 37.8729L54.8427 37.4594C54.9885 37.3134 55.1222 37.204 55.268 37.131C55.4138 37.058 55.5839 37.0337 55.8147 37.0337H56.4222C56.6773 37.0337 56.8839 37.0702 57.0297 37.131C57.1754 37.204 57.3334 37.3134 57.5035 37.4837L57.7343 37.7148C57.8923 37.8729 58.0016 38.031 58.0624 38.1891C58.1231 38.3472 58.1596 38.5418 58.1596 38.7729V40.5242C58.1596 40.7553 58.1231 40.9499 58.0624 41.108C58.0016 41.2661 57.8923 41.4242 57.7343 41.5823L57.5035 41.8134C57.3334 41.9837 57.1754 42.0931 57.0297 42.1661C56.8839 42.2391 56.6773 42.2634 56.4222 42.2634H55.8147C55.5839 42.2634 55.4016 42.2269 55.268 42.1661C55.1343 42.1053 54.9885 41.9959 54.8427 41.8377L54.4297 41.4364C54.3811 41.3877 54.3568 41.3999 54.3568 41.4607V43.9175C54.3568 44.0513 54.2839 44.1242 54.1502 44.1242H53.6885C53.5549 44.1242 53.4941 44.0513 53.4941 43.9175V37.2648C53.4941 37.1067 53.5549 37.0337 53.6885 37.0337ZM54.3932 40.4513C54.4175 40.5121 54.4661 40.585 54.539 40.658L55.1708 41.2783C55.3044 41.4121 55.4624 41.485 55.6689 41.485H56.3614C56.5558 41.485 56.7138 41.4121 56.8596 41.2783L57.0661 41.0715C57.1512 40.9864 57.1997 40.9134 57.2362 40.8283C57.2726 40.7431 57.2848 40.6459 57.2848 40.4999V38.7729C57.2848 38.6391 57.2726 38.5296 57.2362 38.4445C57.1997 38.3715 57.1512 38.2864 57.0661 38.2013L56.8596 37.9945C56.7259 37.8607 56.5558 37.7877 56.3614 37.7877H55.6689C55.4745 37.7877 55.3044 37.8607 55.1708 37.9945L54.539 38.6269C54.4661 38.6999 54.4175 38.7729 54.3932 38.8337C54.3689 38.8945 54.3568 38.9796 54.3568 39.1013V40.1715C54.3568 40.2931 54.3689 40.3904 54.3932 40.4513Z" fill="#161A31"/>
<path d="M62.8254 37.2404V37.6053C62.8254 37.7513 62.7525 37.8242 62.6189 37.8242H61.8292C61.6348 37.8242 61.4647 37.8972 61.3189 38.031L60.7236 38.6391C60.6507 38.7121 60.6021 38.785 60.5778 38.8459C60.5535 38.9067 60.5413 38.9918 60.5413 39.1134V42.0445C60.5413 42.1783 60.4684 42.2513 60.3348 42.2513H59.8731C59.7395 42.2513 59.6787 42.1783 59.6787 42.0445V37.2404C59.6787 37.1067 59.7395 37.0337 59.8731 37.0337H60.3226C60.4684 37.0337 60.5413 37.1067 60.5413 37.2404V37.8486C60.5413 37.9094 60.5656 37.9215 60.6142 37.8729L61.0273 37.4594C61.1731 37.3134 61.3067 37.204 61.4525 37.131C61.5983 37.058 61.7684 37.0337 61.9993 37.0337H62.631C62.7647 37.0337 62.8254 37.1067 62.8254 37.2404Z" fill="#161A31"/>
<path d="M67.3569 37.131C67.5027 37.204 67.6606 37.3134 67.8307 37.4837L68.0616 37.7148C68.2195 37.8729 68.3289 38.031 68.3896 38.1891C68.4503 38.3472 68.4868 38.5418 68.4868 38.7729V39.7945C68.4868 39.9283 68.4139 40.0013 68.2803 40.0013H64.927C64.8541 40.0013 64.8298 40.0377 64.8298 40.0986V40.5121C64.8298 40.6459 64.8419 40.7553 64.8784 40.8404C64.9148 40.9134 64.9634 40.9986 65.0485 41.0837L65.255 41.2904C65.3887 41.4242 65.5588 41.4972 65.7531 41.4972H68.1345C68.2681 41.4972 68.341 41.5702 68.341 41.704V42.0567C68.341 42.1904 68.2681 42.2634 68.1345 42.2634H65.6803C65.4251 42.2634 65.2186 42.2269 65.0728 42.1661C64.927 42.0931 64.769 41.9837 64.5989 41.8134L64.3681 41.5823C64.2102 41.4242 64.1008 41.2661 64.0401 41.108C63.9793 40.9499 63.9429 40.7553 63.9429 40.5242V38.7729C63.9429 38.5418 63.9793 38.3472 64.0401 38.1891C64.1008 38.031 64.2102 37.8729 64.3681 37.7148L64.5989 37.4837C64.769 37.3134 64.927 37.204 65.0728 37.131C65.2186 37.058 65.4251 37.0337 65.6803 37.0337H66.7616C67.0046 37.0337 67.1989 37.0702 67.3569 37.131ZM65.2307 38.0067L65.0242 38.2134C64.9391 38.2986 64.8905 38.3715 64.8541 38.4567C64.8176 38.5418 64.8055 38.6391 64.8055 38.785V39.1499C64.8055 39.2229 64.8419 39.2472 64.9027 39.2472H67.5027C67.5756 39.2472 67.5999 39.2107 67.5999 39.1499V38.785C67.5999 38.6513 67.5877 38.5418 67.5513 38.4567C67.5148 38.3837 67.4662 38.2986 67.3812 38.2134L67.1746 38.0067C67.041 37.8729 66.8709 37.7999 66.6765 37.7999H65.7045C65.5345 37.7999 65.3644 37.8607 65.2307 38.0067Z" fill="#161A31"/>
<path d="M70.6133 39.9161C70.4918 39.8675 70.3581 39.7823 70.2366 39.6486L70.1151 39.5148C69.9937 39.3932 69.9086 39.2715 69.86 39.1742C69.8114 39.0769 69.7871 38.9431 69.7871 38.785V38.408C69.7871 38.2256 69.8114 38.0796 69.86 37.958C69.9086 37.8364 69.9937 37.7148 70.1273 37.5931L70.2974 37.435C70.431 37.3013 70.5647 37.1918 70.6983 37.131C70.832 37.0702 70.9899 37.0337 71.1965 37.0337H73.6385C73.7722 37.0337 73.8451 37.1067 73.8451 37.2404V37.5931C73.8451 37.7269 73.7722 37.7999 73.6385 37.7999H71.318C71.2208 37.7999 71.1479 37.8121 71.0871 37.8364C71.0385 37.8607 70.9778 37.8972 70.917 37.9702L70.8077 38.0796C70.7469 38.1526 70.7105 38.2134 70.6862 38.2621C70.6619 38.3107 70.6497 38.3715 70.6497 38.4567V38.6999C70.6497 38.7729 70.6619 38.8337 70.674 38.8823C70.6862 38.931 70.7226 38.9796 70.7834 39.0404L70.8563 39.1134C70.917 39.1742 70.9778 39.2107 71.0264 39.235C71.075 39.2594 71.1357 39.2715 71.2208 39.2715H72.7759C72.9581 39.2715 73.1039 39.2959 73.2254 39.3445C73.3469 39.3931 73.4806 39.4783 73.6021 39.6121L73.7236 39.7459C73.8451 39.8675 73.9301 39.9891 73.9787 40.0864C74.0273 40.1837 74.0516 40.3175 74.0516 40.4756V40.9134C74.0516 41.0837 74.0273 41.2296 73.9787 41.3513C73.9301 41.4729 73.8451 41.5945 73.7114 41.7161L73.5413 41.8864C73.4077 42.0202 73.274 42.1175 73.1404 42.1783C73.0067 42.2391 72.8488 42.2756 72.6423 42.2756H70.0058C69.8722 42.2756 69.7993 42.2026 69.7993 42.0688V41.7161C69.7993 41.5823 69.8722 41.5094 70.0058 41.5094H72.5329C72.6301 41.5094 72.703 41.4972 72.7637 41.4729C72.8245 41.4486 72.8731 41.4121 72.9338 41.3391L73.0432 41.2296C73.1039 41.1567 73.1404 41.0959 73.1647 41.0472C73.189 40.9986 73.2011 40.9377 73.2011 40.8526V40.5729C73.2011 40.4999 73.189 40.4391 73.1768 40.3904C73.1647 40.3418 73.1282 40.2932 73.0675 40.2323L72.9824 40.135C72.9217 40.0864 72.8609 40.0377 72.8123 40.0256C72.7637 40.0013 72.703 39.9891 72.618 39.9891H71.0628C70.8927 39.9891 70.7469 39.9648 70.6133 39.9161Z" fill="#161A31"/>
<path d="M76.1167 39.9161C75.9952 39.8675 75.8616 39.7823 75.7401 39.6486L75.6186 39.5148C75.4971 39.3932 75.412 39.2715 75.3634 39.1742C75.3148 39.0769 75.2905 38.9431 75.2905 38.785V38.408C75.2905 38.2256 75.3148 38.0796 75.3634 37.958C75.412 37.8364 75.4971 37.7148 75.6307 37.5931L75.8008 37.435C75.9345 37.3013 76.0681 37.1918 76.2017 37.131C76.3354 37.0702 76.4933 37.0337 76.6999 37.0337H79.1419C79.2756 37.0337 79.3485 37.1067 79.3485 37.2404V37.5931C79.3485 37.7269 79.2756 37.7999 79.1419 37.7999H76.8092C76.712 37.7999 76.6391 37.8121 76.5784 37.8364C76.5298 37.8607 76.469 37.8972 76.4083 37.9702L76.2989 38.0796C76.2382 38.1526 76.2017 38.2134 76.1774 38.2621C76.1531 38.3107 76.141 38.3715 76.141 38.4567V38.6999C76.141 38.7729 76.1531 38.8337 76.1653 38.8823C76.1774 38.931 76.2139 38.9796 76.2746 39.0404L76.3475 39.1134C76.4083 39.1742 76.469 39.2107 76.5176 39.235C76.5662 39.2594 76.627 39.2715 76.712 39.2715H78.2672C78.4494 39.2715 78.5952 39.2959 78.7167 39.3445C78.8382 39.3931 78.9718 39.4783 79.0933 39.6121L79.2148 39.7459C79.3363 39.8675 79.4214 39.9891 79.47 40.0864C79.5186 40.1837 79.5429 40.3175 79.5429 40.4756V40.9134C79.5429 41.0837 79.5186 41.2296 79.47 41.3513C79.4214 41.4729 79.3363 41.5945 79.2027 41.7161L79.0326 41.8864C78.8989 42.0202 78.7653 42.1175 78.6316 42.1783C78.498 42.2391 78.3401 42.2756 78.1335 42.2756H75.4971C75.3634 42.2756 75.2905 42.2026 75.2905 42.0688V41.7161C75.2905 41.5823 75.3634 41.5094 75.4971 41.5094H78.0242C78.1214 41.5094 78.1943 41.4972 78.255 41.4729C78.3158 41.4486 78.3644 41.4121 78.4251 41.3391L78.5345 41.2296C78.5952 41.1567 78.6316 41.0959 78.6559 41.0472C78.6802 40.9986 78.6924 40.9377 78.6924 40.8526V40.5729C78.6924 40.4999 78.6802 40.4391 78.6681 40.3904C78.6559 40.3418 78.6195 40.2932 78.5587 40.2323L78.4859 40.135C78.4251 40.0864 78.3644 40.0377 78.3158 40.0256C78.2672 40.0013 78.2064 39.9891 78.1214 39.9891H76.5662C76.3961 39.9891 76.2503 39.9648 76.1167 39.9161Z" fill="#161A31"/>
<mask id="mask0_3130_310" style="mask-type:luminance" maskUnits="userSpaceOnUse" x="-1" y="-4" width="163" height="46">
<path d="M161.589 -3.64844H-0.21875V41.6921H161.589V-3.64844Z" fill="white"/>
</mask>
<g mask="url(#mask0_3130_310)">
<path d="M7.86058 24.6406L22.4886 38.8582H0.789555C0.0119847 38.8582 -0.473997 38.0312 -0.073062 37.3744L7.86058 24.6406Z" fill="#E50043"/>
</g>
<mask id="mask1_3130_310" style="mask-type:luminance" maskUnits="userSpaceOnUse" x="-1" y="-4" width="163" height="46">
<path d="M161.589 -3.64844H-0.21875V41.6921H161.589V-3.64844Z" fill="white"/>
</mask>
<g mask="url(#mask1_3130_310)">
<path d="M33.5692 18.9977L22.8291 1.04635C22.5375 0.547706 21.9907 0.243652 21.4076 0.243652H1.54307C0.425317 0.243652 -0.267206 1.43554 0.315972 2.35987L11.0197 19.545L22.4767 38.8464L33.5571 20.2747C33.8001 19.8855 33.8001 19.3991 33.5692 18.9977Z" fill="#E50043"/>
</g>
</g>
<defs>
<clipPath id="clip0_3130_310">
<rect width="130" height="45" fill="white"/>
</clipPath>
</defs>
</svg>
