<svg width="22" height="30" viewBox="0 0 22 30" fill="none" xmlns="http://www.w3.org/2000/svg">
<path d="M22 9.61957C22 16.8293 13.9831 25.7609 11 30C8.01695 25.7609 0 16.8293 0 9.61957C0 4.30683 4.92487 0 11 0C17.0751 0 22 4.30683 22 9.61957Z" fill="#E50043"/>
<path d="M14.28 16.52V18H7.88V16.52H10.224V9.776C10.224 9.50933 10.232 9.23467 10.248 8.952L8.584 10.344C8.488 10.4187 8.392 10.4667 8.296 10.488C8.20533 10.504 8.11733 10.504 8.032 10.488C7.952 10.472 7.88 10.4453 7.816 10.408C7.752 10.3653 7.704 10.32 7.672 10.272L7.048 9.416L10.576 6.416H12.2V16.52H14.28Z" fill="white"/>
</svg>
