<svg width="22" height="30" viewBox="0 0 22 30" fill="none" xmlns="http://www.w3.org/2000/svg">
<path d="M22 9.61957C22 16.8293 13.9831 25.7609 11 30C8.01695 25.7609 0 16.8293 0 9.61957C0 4.30683 4.92487 0 11 0C17.0751 0 22 4.30683 22 9.61957Z" fill="#E50043"/>
<path d="M13.848 16.16C14.0613 16.16 14.2293 16.2213 14.352 16.344C14.48 16.4613 14.544 16.6187 14.544 16.816V18H6.608V17.344C6.608 17.2107 6.63467 17.072 6.688 16.928C6.74667 16.7787 6.83733 16.6453 6.96 16.528L10.472 13.008C10.7653 12.7093 11.0267 12.424 11.256 12.152C11.4907 11.88 11.6853 11.6107 11.84 11.344C11.9947 11.0773 12.112 10.808 12.192 10.536C12.2773 10.2587 12.32 9.968 12.32 9.664C12.32 9.38667 12.28 9.144 12.2 8.936C12.12 8.72267 12.0053 8.544 11.856 8.4C11.712 8.256 11.536 8.14933 11.328 8.08C11.1253 8.00533 10.896 7.968 10.64 7.968C10.4053 7.968 10.1867 8.00267 9.984 8.072C9.78667 8.136 9.61067 8.22933 9.456 8.352C9.30133 8.46933 9.17067 8.608 9.064 8.768C8.95733 8.928 8.87733 9.104 8.824 9.296C8.73333 9.54133 8.616 9.704 8.472 9.784C8.328 9.864 8.12 9.88267 7.848 9.84L6.808 9.656C6.888 9.10133 7.04267 8.616 7.272 8.2C7.50133 7.77867 7.78667 7.42933 8.128 7.152C8.47467 6.86933 8.86933 6.65867 9.312 6.52C9.76 6.376 10.24 6.304 10.752 6.304C11.2853 6.304 11.7733 6.384 12.216 6.544C12.6587 6.69867 13.0373 6.92 13.352 7.208C13.6667 7.496 13.912 7.84267 14.088 8.248C14.264 8.65333 14.352 9.104 14.352 9.6C14.352 10.0267 14.288 10.4213 14.16 10.784C14.0373 11.1467 13.8693 11.4933 13.656 11.824C13.448 12.1547 13.2027 12.4747 12.92 12.784C12.6373 13.0933 12.3413 13.408 12.032 13.728L9.424 16.392C9.67467 16.3173 9.92267 16.2613 10.168 16.224C10.4187 16.1813 10.656 16.16 10.88 16.16H13.848Z" fill="white"/>
</svg>
