<svg width="14" height="17" viewBox="0 0 14 17" fill="none" xmlns="http://www.w3.org/2000/svg">
<path d="M6.85714 14.9762C5.44266 14.9762 4.0861 14.4143 3.08591 13.4141C2.08571 12.4139 1.52381 11.0573 1.52381 9.64286C1.52381 8.22837 2.08571 6.87182 3.08591 5.87162C4.0861 4.87143 5.44266 4.30952 6.85714 4.30952C8.27163 4.30952 9.62819 4.87143 10.6284 5.87162C11.6286 6.87182 12.1905 8.22837 12.1905 9.64286C12.1905 11.0573 11.6286 12.4139 10.6284 13.4141C9.62819 14.4143 8.27163 14.9762 6.85714 14.9762ZM12.2133 5.36857L13.2952 4.28667C12.9524 3.8981 12.6095 3.54762 12.221 3.21238L11.139 4.30952C9.9581 3.34952 8.47238 2.78571 6.85714 2.78571C5.03852 2.78571 3.29437 3.50816 2.00841 4.79413C0.722447 6.08009 0 7.82423 0 9.64286C0 11.4615 0.722447 13.2056 2.00841 14.4916C3.29437 15.7776 5.03852 16.5 6.85714 16.5C10.6667 16.5 13.7143 13.4295 13.7143 9.64286C13.7143 8.02762 13.1505 6.5419 12.2133 5.36857ZM6.09524 10.4048H7.61905V5.83333H6.09524M9.14286 0.5H4.57143V2.02381H9.14286V0.5Z" fill="#121231"/>
</svg>
